<!-- Exported by Character Map UWP -->
<svg height="100%" viewBox="32 -198 288 252" width="100%" xmlns="http://www.w3.org/2000/svg" xmlns:xlink="http://www.w3.org/1999/xlink">
  <path d="M81.375,53.875C74.5417,53.875 68.125,52.5833 62.125,50C56.125,47.4167 50.8958,43.8958 46.4375,39.4375C41.9792,34.9792 38.4583,29.75 35.875,23.75C33.2917,17.75 32,11.3333 32,4.5C32,-0.25 32.6667,-4.83333 34,-9.25C35.3333,-13.6667 37.2083,-17.8125 39.625,-21.6875C42.0417,-25.5625 44.9583,-29.0625 48.375,-32.1875C51.7917,-35.3125 55.625,-37.9167 59.875,-40C59.5417,-41.5833 59.3125,-43.1667 59.1875,-44.75C59.0625,-46.3333 59,-47.9167 59,-49.5C59,-55.0833 59.8958,-60.4167 61.6875,-65.5C63.4792,-70.5833 65.9583,-75.2083 69.125,-79.375C72.2917,-83.5417 76.1042,-87.1667 80.5625,-90.25C85.0208,-93.3333 89.9167,-95.625 95.25,-97.125C95,-99.2083 94.875,-101.292 94.875,-103.375C94.875,-110.208 96.1667,-116.625 98.75,-122.625C101.333,-128.625 104.854,-133.854 109.313,-138.313C113.771,-142.771 119,-146.292 125,-148.875C131,-151.458 137.417,-152.75 144.25,-152.75L166.75,-152.75C169.25,-152.75 171.375,-153.625 173.125,-155.375C174.875,-157.125 175.75,-159.25 175.75,-161.75L175.75,-197.625L193.75,-197.625C199.833,-197.625 205.625,-196.646 211.125,-194.688C216.625,-192.729 221.708,-190.021 226.375,-186.563C231.042,-183.104 235.229,-179.063 238.938,-174.438C242.646,-169.813 245.812,-164.854 248.438,-159.563C251.062,-154.271 253.083,-148.729 254.5,-142.938C255.917,-137.146 256.625,-131.417 256.625,-125.75C256.625,-116.25 254.792,-107.083 251.125,-98.25C257.125,-97.25 262.646,-95.2917 267.688,-92.375C272.729,-89.4583 277.083,-85.8333 280.75,-81.5C284.417,-77.1667 287.292,-72.2708 289.375,-66.8125C291.458,-61.3542 292.5,-55.5833 292.5,-49.5C292.5,-47.9167 292.438,-46.3333 292.313,-44.75C292.188,-43.1667 291.958,-41.5833 291.625,-40C295.875,-37.9167 299.708,-35.3125 303.125,-32.1875C306.542,-29.0625 309.458,-25.5625 311.875,-21.6875C314.292,-17.8125 316.167,-13.6667 317.5,-9.25C318.833,-4.83333 319.5,-0.25 319.5,4.5C319.5,11.3333 318.208,17.75 315.625,23.75C313.042,29.75 309.521,34.9792 305.063,39.4375C300.604,43.8958 295.375,47.4167 289.375,50C283.375,52.5833 276.958,53.875 270.125,53.875Z" fill="#000000" fill-opacity="1">
  </path>
  <path d="M265.125,-27L270.125,-27C274.458,-27 278.542,-26.1667 282.375,-24.5C286.208,-22.8333 289.542,-20.5833 292.375,-17.75C295.208,-14.9167 297.438,-11.5833 299.063,-7.75C300.688,-3.91667 301.5,0.166667 301.5,4.5C301.5,8.91667 300.688,13.0208 299.063,16.8125C297.438,20.6042 295.208,23.9167 292.375,26.75C289.542,29.5833 286.208,31.8125 282.375,33.4375C278.542,35.0625 274.458,35.875 270.125,35.875L81.375,35.875C76.9583,35.875 72.8542,35.0625 69.0625,33.4375C65.2708,31.8125 61.9583,29.5833 59.125,26.75C56.2917,23.9167 54.0625,20.6042 52.4375,16.8125C50.8125,13.0208 50,8.91667 50,4.5C50,0.166667 50.8125,-3.91667 52.4375,-7.75C54.0625,-11.5833 56.2917,-14.9167 59.125,-17.75C61.9583,-20.5833 65.2917,-22.8333 69.125,-24.5C72.9583,-26.1667 77.0417,-27 81.375,-27L86.375,-27C83.2917,-29.9167 80.9375,-33.3333 79.3125,-37.25C77.6875,-41.1667 76.875,-45.25 76.875,-49.5C76.875,-53.8333 77.7083,-57.8958 79.375,-61.6875C81.0417,-65.4792 83.3125,-68.7917 86.1875,-71.625C89.0625,-74.4583 92.3958,-76.7083 96.1875,-78.375C99.9792,-80.0417 104.042,-80.875 108.375,-80.875L122.375,-80.875C119.292,-83.7917 116.937,-87.2083 115.313,-91.125C113.687,-95.0417 112.875,-99.125 112.875,-103.375C112.875,-107.708 113.687,-111.792 115.313,-115.625C116.937,-119.458 119.167,-122.792 122,-125.625C124.833,-128.458 128.146,-130.688 131.938,-132.313C135.729,-133.938 139.833,-134.75 144.25,-134.75L166.75,-134.75C170.5,-134.75 174,-135.458 177.25,-136.875C180.5,-138.292 183.354,-140.229 185.813,-142.688C188.271,-145.146 190.208,-148 191.625,-151.25C193.042,-154.5 193.75,-158 193.75,-161.75L193.75,-179.75C200.25,-178.583 206.25,-176.354 211.75,-173.063C217.25,-169.771 221.979,-165.708 225.938,-160.875C229.896,-156.042 233,-150.625 235.25,-144.625C237.5,-138.625 238.625,-132.333 238.625,-125.75C238.625,-121.25 238.063,-116.854 236.938,-112.563C235.813,-108.271 234.229,-104.187 232.188,-100.313C230.146,-96.4375 227.625,-92.8542 224.625,-89.5625C221.625,-86.2708 218.25,-83.375 214.5,-80.875L243.125,-80.875C247.458,-80.875 251.521,-80.0417 255.313,-78.375C259.104,-76.7083 262.438,-74.4583 265.313,-71.625C268.188,-68.7917 270.458,-65.4792 272.125,-61.6875C273.792,-57.8958 274.625,-53.8333 274.625,-49.5C274.625,-45.25 273.792,-41.1875 272.125,-37.3125C270.458,-33.4375 268.125,-30 265.125,-27Z" fill="#8E562E" fill-opacity="1">
  </path>
  <path d="M53.125,18L298.375,18C297.125,20.75 295.5,23.2083 293.5,25.375C291.5,27.5417 289.271,29.4167 286.813,31C284.354,32.5833 281.708,33.7917 278.875,34.625C276.042,35.4583 273.125,35.875 270.125,35.875L81.375,35.875C78.375,35.875 75.4583,35.4583 72.625,34.625C69.7917,33.7917 67.1458,32.5833 64.6875,31C62.2292,29.4167 60,27.5417 58,25.375C56,23.2083 54.375,20.75 53.125,18ZM264.875,-27L86.625,-27C81.4583,-32 78.375,-38 77.375,-45L274.125,-45C273.125,-38 270.042,-32 264.875,-27ZM214.25,-80.875L122.5,-80.875C120.083,-83.2917 118.083,-86.0417 116.5,-89.125C114.917,-92.2083 113.833,-95.4583 113.25,-98.875L231.375,-98.875C227.125,-91.625 221.417,-85.625 214.25,-80.875Z" fill="#613D30" fill-opacity="1">
  </path>
  <path d="M216.125,-98.875C219.208,-98.875 222.125,-98.2917 224.875,-97.125C227.625,-95.9583 230.021,-94.3542 232.063,-92.3125C234.104,-90.2708 235.708,-87.875 236.875,-85.125C238.042,-82.375 238.625,-79.4583 238.625,-76.375L238.625,-58.375C238.625,-55.2917 238.042,-52.3958 236.875,-49.6875C235.708,-46.9792 234.104,-44.6042 232.063,-42.5625C230.021,-40.5208 227.625,-38.9167 224.875,-37.75C222.125,-36.5833 219.208,-36 216.125,-36C213.042,-36 210.146,-36.5833 207.438,-37.75C204.729,-38.9167 202.354,-40.5208 200.313,-42.5625C198.271,-44.6042 196.667,-46.9792 195.5,-49.6875C194.333,-52.3958 193.75,-55.2917 193.75,-58.375L193.75,-76.375C193.75,-79.4583 194.333,-82.375 195.5,-85.125C196.667,-87.875 198.271,-90.2708 200.313,-92.3125C202.354,-94.3542 204.729,-95.9583 207.438,-97.125C210.146,-98.2917 213.042,-98.875 216.125,-98.875ZM135.375,-98.875C138.458,-98.875 141.354,-98.2917 144.063,-97.125C146.771,-95.9583 149.146,-94.3542 151.188,-92.3125C153.229,-90.2708 154.833,-87.875 156,-85.125C157.167,-82.375 157.75,-79.4583 157.75,-76.375L157.75,-58.375C157.75,-55.2917 157.167,-52.3958 156,-49.6875C154.833,-46.9792 153.229,-44.6042 151.188,-42.5625C149.146,-40.5208 146.771,-38.9167 144.063,-37.75C141.354,-36.5833 138.458,-36 135.375,-36C132.292,-36 129.375,-36.5833 126.625,-37.75C123.875,-38.9167 121.479,-40.5208 119.438,-42.5625C117.396,-44.6042 115.792,-46.9792 114.625,-49.6875C113.458,-52.3958 112.875,-55.2917 112.875,-58.375L112.875,-76.375C112.875,-79.4583 113.458,-82.375 114.625,-85.125C115.792,-87.875 117.396,-90.2708 119.438,-92.3125C121.479,-94.3542 123.854,-95.9583 126.563,-97.125C129.271,-98.2917 132.208,-98.875 135.375,-98.875Z" fill="#FFFFFF" fill-opacity="1">
  </path>
  <path d="M154.125,21.25C150.542,19.25 147.313,16.8542 144.438,14.0625C141.563,11.2708 139.125,8.1875 137.125,4.8125C135.125,1.4375 133.583,-2.16667 132.5,-6C131.417,-9.83333 130.875,-13.8333 130.875,-18L220.625,-18C220.625,-13.8333 220.083,-9.83333 219,-6C217.917,-2.16667 216.375,1.4375 214.375,4.8125C212.375,8.1875 209.938,11.2708 207.063,14.0625C204.188,16.8542 200.958,19.25 197.375,21.25C196.625,17.75 194.458,16 190.875,16C188.208,16 185.583,16.3542 183,17.0625C180.417,17.7708 177.792,18.125 175.125,18.125C172.542,18.125 170.042,17.7708 167.625,17.0625C165.208,16.3542 162.708,16 160.125,16C158.375,16 157.042,16.4583 156.125,17.375C155.208,18.2917 154.542,19.5833 154.125,21.25ZM148.75,-76.375L148.75,-57.75C148.75,-55.75 148.333,-53.9583 147.5,-52.375C146.667,-50.7917 145.563,-49.4583 144.188,-48.375C142.813,-47.2917 141.271,-46.4583 139.563,-45.875C137.854,-45.2917 136.083,-45 134.25,-45C132.5,-45 130.875,-45.3958 129.375,-46.1875C127.875,-46.9792 126.562,-48 125.438,-49.25C124.312,-50.5 123.437,-51.9167 122.813,-53.5C122.187,-55.0833 121.875,-56.7083 121.875,-58.375L121.875,-76.875C121.875,-78.7083 122.25,-80.4167 123,-82C123.75,-83.5833 124.75,-84.9583 126,-86.125C127.25,-87.2917 128.688,-88.2083 130.313,-88.875C131.938,-89.5417 133.625,-89.875 135.375,-89.875C137.208,-89.875 138.958,-89.5208 140.625,-88.8125C142.292,-88.1042 143.708,-87.125 144.875,-85.875C146.042,-84.625 146.979,-83.1875 147.688,-81.5625C148.396,-79.9375 148.75,-78.2083 148.75,-76.375ZM216.625,-89.875C218.292,-89.875 219.917,-89.5208 221.5,-88.8125C223.083,-88.1042 224.479,-87.1458 225.688,-85.9375C226.896,-84.7292 227.854,-83.3333 228.563,-81.75C229.271,-80.1667 229.625,-78.5417 229.625,-76.875L229.625,-58.375C229.625,-56.375 229.25,-54.5625 228.5,-52.9375C227.75,-51.3125 226.729,-49.8958 225.438,-48.6875C224.146,-47.4792 222.646,-46.5625 220.938,-45.9375C219.229,-45.3125 217.417,-45 215.5,-45C214,-45 212.479,-45.3333 210.938,-46C209.396,-46.6667 208.021,-47.5625 206.813,-48.6875C205.604,-49.8125 204.625,-51.125 203.875,-52.625C203.125,-54.125 202.75,-55.6667 202.75,-57.25L202.75,-77.5C202.75,-79.3333 203.167,-81 204,-82.5C204.833,-84 205.896,-85.2917 207.188,-86.375C208.479,-87.4583 209.958,-88.3125 211.625,-88.9375C213.292,-89.5625 214.958,-89.875 216.625,-89.875Z" fill="#000000" fill-opacity="1">
  </path>
  <path d="M175.75,26.875C172,26.875 168.271,26.4167 164.563,25.5C160.854,24.5833 157.375,23.1667 154.125,21.25C154.792,18.75 155.813,16.4792 157.188,14.4375C158.563,12.3958 160.188,10.6458 162.063,9.1875C163.938,7.72917 166.042,6.58333 168.375,5.75C170.708,4.91667 173.167,4.5 175.75,4.5C178.25,4.5 180.667,4.91667 183,5.75C185.333,6.58333 187.458,7.75 189.375,9.25C191.292,10.75 192.938,12.5208 194.313,14.5625C195.688,16.6042 196.708,18.8333 197.375,21.25C194.208,23.1667 190.729,24.5833 186.938,25.5C183.146,26.4167 179.417,26.875 175.75,26.875Z" fill="#E81224" fill-opacity="1">
  </path>
</svg>